{"title":"Lake Placid The Final Chapter 2012 DVDRip XViD -juggs","uid":8150446,"size":744647771,"categoryP":"video","categoryS":"movies","magnet":"?xt=urn:btih:823a6fb4097beeb1387870c0a1eb38cb6f757a64&amp;dn=Lake+Placid+The+Final+Chapter+2012+DVDRip+XViD+-juggs&amp;tr=udp%3A%2F%2Ftracker.openbittorrent.com%3A80&amp;tr=udp%3A%2F%2Fopen.demonii.com%3A1337&amp;tr=udp%3A%2F%2Ftracker.coppersurfer.tk%3A6969&amp;tr=udp%3A%2F%2Fexodus.desync.com%3A6969","seeders":10,"leechers":2,"uploader":"juggs99","files":3,"time":1361023512,"description":"Format : AVI\nFormat/Info : Audio Video Interleave\nFile size : 702 MiB\nDuration : 1h 30mn\nOverall bit rate : 1 088 Kbps\nWriting library : VirtualDub build 32842/release\n\nVideo\nID : 0\nFormat : MPEG-4 Visual\nFormat profile : Advanced Simple@L5\nFormat settings, BVOP : 4\nFormat settings, QPel : No\nFormat settings, GMC : No warppoints\nFormat settings, Matrix : Default (H.263)\nMuxing mode : Packed bitstream\nCodec ID : XVID\nCodec ID/Hint : XviD\nDuration : 1h 30mn\nBit rate : 950 Kbps\nWidth : 640 pixels\nHeight : 352 pixels\nDisplay aspect ratio : 16:9\nFrame rate : 23.976 fps\nColor space : YUV\nChroma subsampling : 4:2:0\nBit depth : 8 bits\nScan type : Progressive\nCompression mode : Lossy\nBits/(Pixel*Frame) : 0.176\nStream size : 613 MiB (87%)\nWriting library : XviD 64\n\nAudio\nID : 1\nFormat : MPEG Audio\nFormat version : Version 1\nFormat profile : Layer 3\nMode : Joint stereo\nMode extension : MS Stereo\nCodec ID : 55\nCodec ID/Hint : MP3\nDuration : 1h 30mn\nBit rate mode : Constant\nBit rate : 128 Kbps\nChannel(s) : 2 channels\nSampling rate : 44.1 KHz\nCompression mode : Lossy\nStream size : 82.6 MiB (12%)\nAlignment : Split accross interleaves\nInterleave, duration : 42 ms (1.00 video frame)\nInterleave, preload duration : 500 ms\nWriting library : LAME3.98\n\n\nPlot\n\nrequel follows Jim Bickerman, a poacher who discovers that his local lake is inhabited by man-eating crocodiles.\n\n\n &lt;a href=&quot;\nhttp://www.shotpix.com/images/10477567882474110259.png&quot; rel=&quot;nofollow&quot; target=&quot;_NEW&quot;&gt;\nhttp://www.shotpix.com/images/10477567882474110259.png&lt;/a&gt; &lt;a href=&quot;\nhttp://www.shotpix.com/images/57229418361257347330.png&quot; rel=&quot;nofollow&quot; target=&quot;_NEW&quot;&gt;\nhttp://www.shotpix.com/images/57229418361257347330.png&lt;/a&gt; &lt;a href=&quot;\nhttp://www.shotpix.com/images/44297236489401970327.png&quot; rel=&quot;nofollow&quot; target=&quot;_NEW&quot;&gt;\nhttp://www.shotpix.com/images/44297236489401970327.png&lt;/a&gt;","torrent":{"xt":"urn:btih:823a6fb4097beeb1387870c0a1eb38cb6f757a64","amp;dn":"Lake+Placid+The+Final+Chapter+2012+DVDRip+XViD+-juggs","amp;tr":["udp%3A%2F%2Ftracker.openbittorrent.com%3A80","udp%3A%2F%2Fopen.demonii.com%3A1337","udp%3A%2F%2Ftracker.coppersurfer.tk%3A6969","udp%3A%2F%2Fexodus.desync.com%3A6969"],"infoHash":"823a6fb4097beeb1387870c0a1eb38cb6f757a64","infoHashBuffer":{"type":"Buffer","data":[130,58,111,180,9,123,238,177,56,120,112,192,161,235,56,203,111,117,122,100]},"announce":[],"urlList":[]}}